<svg xmlns="http://www.w3.org/2000/svg" width="206.44345092773438" height="190.3343505859375" viewBox="5.823883056640625 12.461006164550781 206.44345092773438 190.3343505859375"><title>Neo4j Graph Visualization</title><desc>Created using Neo4j (http://www.neo4j.com/)</desc><g class="layer relationships"><g class="relationship" transform="translate(74.16743362497593 173.79535496724017) rotate(352.7528806274929)"><path class="outline" fill="#A5ABB6" stroke="none" d="M 25 0.5 L 28.989250661727645 0.5 L 28.989250661727645 -0.5 L 25 -0.5 Z M 73.98925066172765 0.5 L 77.97850132345529 0.5 L 77.97850132345529 3.5 L 84.97850132345529 0 L 77.97850132345529 -3.5 L 77.97850132345529 -0.5 L 73.98925066172765 -0.5 Z"/><text text-anchor="middle" pointer-events="none" font-size="8px" fill="#000000" x="51.489250661727645" y="3" font-family="sans-serif">ACTED_IN</text></g><g class="relationship" transform="translate(74.16743362497593 173.79535496724017) rotate(268.1748070451953)"><path class="outline" fill="#A5ABB6" stroke="none" d="M 25 0.5 L 40.2007603079237 0.5 L 40.2007603079237 -0.5 L 25 -0.5 Z M 85.2007603079237 0.5 L 100.4015206158474 0.5 L 100.4015206158474 3.5 L 107.4015206158474 0 L 100.4015206158474 -3.5 L 100.4015206158474 -0.5 L 85.2007603079237 -0.5 Z"/><text text-anchor="middle" pointer-events="none" font-size="8px" fill="#000000" x="62.7007603079237" y="3" transform="rotate(180 62.7007603079237 0)" font-family="sans-serif">ACTED_IN</text></g><g class="relationship" transform="translate(74.16743362497593 173.79535496724017) rotate(244.83681184724753)"><path class="outline" fill="#A5ABB6" stroke="none" d="M 25 0.5 L 25.264989803414828 0.5 L 25.264989803414828 -0.5 L 25 -0.5 Z M 60.26498980341483 0.5 L 60.529979606829656 0.5 L 60.529979606829656 3.5 L 67.52997960682966 0 L 60.529979606829656 -3.5 L 60.529979606829656 -0.5 L 60.26498980341483 -0.5 Z"/><text text-anchor="middle" pointer-events="none" font-size="8px" fill="#000000" x="42.76498980341483" y="3" transform="rotate(180 42.76498980341483 0)" font-family="sans-serif">ACTE…</text></g><g class="relationship" transform="translate(161.7372696883274 52.06853183949661) rotate(438.7107810506836)"><path class="outline" fill="#A5ABB6" stroke="none" d="M 25 0.5 L 28.990551445365227 0.5 L 28.990551445365227 -0.5 L 25 -0.5 Z M 73.99055144536523 0.5 L 77.98110289073045 0.5 L 77.98110289073045 3.5 L 84.98110289073045 0 L 77.98110289073045 -3.5 L 77.98110289073045 -0.5 L 73.99055144536523 -0.5 Z"/><text text-anchor="middle" pointer-events="none" font-size="8px" fill="#000000" x="51.49055144536523" y="3" font-family="sans-serif">ACTED_IN</text></g><g class="relationship" transform="translate(161.7372696883274 52.06853183949661) rotate(186.59225226546994)"><path class="outline" fill="#A5ABB6" stroke="none" d="M 25 0.5 L 25.19888127671743 0.5 L 25.19888127671743 -0.5 L 25 -0.5 Z M 60.19888127671743 0.5 L 60.39776255343486 0.5 L 60.39776255343486 3.5 L 67.39776255343486 0 L 60.39776255343486 -3.5 L 60.39776255343486 -0.5 L 60.19888127671743 -0.5 Z"/><text text-anchor="middle" pointer-events="none" font-size="8px" fill="#000000" x="42.69888127671743" y="3" transform="rotate(180 42.69888127671743 0)" font-family="sans-serif">ACTE…</text></g><g class="relationship" transform="translate(161.7372696883274 52.06853183949661) rotate(523.3405734816644)"><path class="outline" fill="#A5ABB6" stroke="none" d="M 25 0.5 L 40.236938911821525 0.5 L 40.236938911821525 -0.5 L 25 -0.5 Z M 85.23693891182153 0.5 L 100.47387782364305 0.5 L 100.47387782364305 3.5 L 107.47387782364305 0 L 100.47387782364305 -3.5 L 100.47387782364305 -0.5 L 85.23693891182153 -0.5 Z"/><text text-anchor="middle" pointer-events="none" font-size="8px" fill="#000000" x="62.736938911821525" y="3" transform="rotate(180 62.736938911821525 0)" font-family="sans-serif">ACTED_IN</text></g></g><g class="layer nodes"><g class="node" transform="translate(183.2673489536682,159.92166661030234)"><circle class="outline" cx="0" cy="0" r="25" fill="#57C7E3" stroke="#23b3d7" stroke-width="2px"/><text text-anchor="middle" pointer-events="none" font-family="sans-serif" dy="1.5625" font-size="25" fill="#2A2C34"/><text text-anchor="middle" pointer-events="none" font-family="sans-serif" dy="1.5625" font-size="25" fill="#2A2C34"/><text text-anchor="middle" pointer-events="none" font-family="sans-serif" dy="1.5625" font-size="25" fill="#2A2C34"/><text text-anchor="middle" pointer-events="none" x="0" y="-5" font-size="10px" fill="#2A2C34" font-family="sans-serif"> The</text><text text-anchor="middle" pointer-events="none" x="0" y="5" font-size="10px" fill="#2A2C34" font-family="sans-serif"> Matrix</text><text text-anchor="middle" pointer-events="none" x="0" y="15" font-size="10px" fill="#2A2C34" font-family="sans-serif"> Revol…</text></g><g class="node" transform="translate(74.16743362497593,173.79535496724017)"><circle class="outline" cx="0" cy="0" r="25" fill="#F79767" stroke="#f36924" stroke-width="2px"/><text text-anchor="middle" pointer-events="none" font-family="sans-serif" dy="1.5625" font-size="25" fill="#FFFFFF"/><text text-anchor="middle" pointer-events="none" font-family="sans-serif" dy="1.5625" font-size="25" fill="#FFFFFF"/><text text-anchor="middle" pointer-events="none" x="0" y="0" font-size="10px" fill="#FFFFFF" font-family="sans-serif"> Hugo</text><text text-anchor="middle" pointer-events="none" x="0" y="10" font-size="10px" fill="#FFFFFF" font-family="sans-serif"> Weaving</text></g><g class="node" transform="translate(161.7372696883274,52.06853183949661)"><circle class="outline" cx="0" cy="0" r="25" fill="#F79767" stroke="#f36924" stroke-width="2px"/><text text-anchor="middle" pointer-events="none" font-family="sans-serif" dy="1.5625" font-size="25" fill="#FFFFFF"/><text text-anchor="middle" pointer-events="none" font-family="sans-serif" dy="1.5625" font-size="25" fill="#FFFFFF"/><text text-anchor="middle" pointer-events="none" x="0" y="0" font-size="10px" fill="#FFFFFF" font-family="sans-serif"> Keanu</text><text text-anchor="middle" pointer-events="none" x="0" y="10" font-size="10px" fill="#FFFFFF" font-family="sans-serif"> Reeves</text></g><g class="node" transform="translate(69.950413539893,41.46100794051142)"><circle class="outline" cx="0" cy="0" r="25" fill="#57C7E3" stroke="#23b3d7" stroke-width="2px"/><text text-anchor="middle" pointer-events="none" font-family="sans-serif" dy="1.5625" font-size="25" fill="#2A2C34"/><text text-anchor="middle" pointer-events="none" font-family="sans-serif" dy="1.5625" font-size="25" fill="#2A2C34"/><text text-anchor="middle" pointer-events="none" font-family="sans-serif" dy="1.5625" font-size="25" fill="#2A2C34"/><text text-anchor="middle" pointer-events="none" x="0" y="-5" font-size="10px" fill="#2A2C34" font-family="sans-serif"> The</text><text text-anchor="middle" pointer-events="none" x="0" y="5" font-size="10px" fill="#2A2C34" font-family="sans-serif"> Matrix</text><text text-anchor="middle" pointer-events="none" x="0" y="15" font-size="10px" fill="#2A2C34" font-family="sans-serif"> Reloa…</text></g><g class="node" transform="translate(34.82388400876999,90.04643121512588)"><circle class="outline" cx="0" cy="0" r="25" fill="#57C7E3" stroke="#23b3d7" stroke-width="2px"/><text text-anchor="middle" pointer-events="none" font-family="sans-serif" dy="1.5625" font-size="25" fill="#2A2C34"/><text text-anchor="middle" pointer-events="none" font-family="sans-serif" dy="1.5625" font-size="25" fill="#2A2C34"/><text text-anchor="middle" pointer-events="none" x="0" y="0" font-size="10px" fill="#2A2C34" font-family="sans-serif"> The</text><text text-anchor="middle" pointer-events="none" x="0" y="10" font-size="10px" fill="#2A2C34" font-family="sans-serif"> Matrix</text></g></g></svg>