<svg xmlns="http://www.w3.org/2000/svg" width="163.88499450683594" height="242.2329864501953" viewBox="-0.012552261352539062 -19.97047233581543 163.88499450683594 242.2329864501953"><title>Neo4j Graph Visualization</title><desc>Created using Neo4j (http://www.neo4j.com/)</desc><g class="layer relationships"><g class="relationship" transform="translate(134.87243925561143 9.02952765352808) rotate(521.3379056204751)"><path class="outline" fill="#A5ABB6" stroke="none" d="M 21.40063509461097,12.933012701892217 L 21.90063509461097,12.06698729810778 A 59.95225421979258 59.95225421979258 0 0 0 22.14972006183917,12.210002115282144 L 21.653874784133933,13.078412997628412 A 60.95225421979258 60.95225421979258 0 0 1 21.40063509461097,12.933012701892217 Z M 78.78166819157713,14.839620873564172 L 78.34025865994519,13.942315114424922 A 59.95225421979258 59.95225421979258 0 0 0 78.59768030458464,13.81491552375985 L 77.26057037696881,11.129373298906327 L 85.08679715051217,11.142582730131856 L 80.38049354140574,17.395638490231217 L 79.04338361378991,14.710096265377693 A 60.95225421979258 60.95225421979258 0 0 1 78.78166819157713,14.839620873564172"/><text text-anchor="middle" pointer-events="none" font-size="8px" fill="#000000" x="50.01394868487276" y="23.570358583349872" transform="rotate(180 50.01394868487276 20.570358583349872)" font-family="sans-serif">PublicTransp…</text></g><g class="relationship" transform="translate(33.0564680699758 43.4172728502477) rotate(452.18402915390055)"><path class="outline" fill="#A5ABB6" stroke="none" d="M 25 0.5 L 40.88622345681117 0.5 L 40.88622345681117 -0.5 L 25 -0.5 Z M 58.88622345681117 0.5 L 74.77244691362235 0.5 L 74.77244691362235 3.5 L 81.77244691362235 0 L 74.77244691362235 -3.5 L 74.77244691362235 -0.5 L 58.88622345681117 -0.5 Z"/><text text-anchor="middle" pointer-events="none" font-size="8px" fill="#000000" x="49.88622345681117" y="3" transform="rotate(180 49.88622345681117 0)" font-family="sans-serif">trek</text></g><g class="relationship" transform="translate(28.98744814648913 150.11215790470834) rotate(383.6734313869806)"><path class="outline" fill="#A5ABB6" stroke="none" d="M 25 0.5 L 41.23334226343698 0.5 L 41.23334226343698 -0.5 L 25 -0.5 Z M 59.23334226343698 0.5 L 75.46668452687396 0.5 L 75.46668452687396 3.5 L 82.46668452687396 0 L 75.46668452687396 -3.5 L 75.46668452687396 -0.5 L 59.23334226343698 -0.5 Z"/><text text-anchor="middle" pointer-events="none" font-size="8px" fill="#000000" x="50.23334226343698" y="3" font-family="sans-serif">trek</text></g><g class="relationship" transform="translate(134.87243925561143 9.02952765352808) rotate(521.3379056204751)"><path class="outline" fill="#A5ABB6" stroke="none" d="M 25 0.5 L 41.23315784547911 0.5 L 41.23315784547911 -0.5 L 25 -0.5 Z M 59.23315784547911 0.5 L 75.46631569095823 0.5 L 75.46631569095823 3.5 L 82.46631569095823 0 L 75.46631569095823 -3.5 L 75.46631569095823 -0.5 L 59.23315784547911 -0.5 Z"/><text text-anchor="middle" pointer-events="none" font-size="8px" fill="#000000" x="50.23315784547911" y="3" transform="rotate(180 50.23315784547911 0)" font-family="sans-serif">trek</text></g><g class="relationship" transform="translate(134.87243925561143 9.02952765352808) rotate(521.3379056204751)"><path class="outline" fill="#A5ABB6" stroke="none" d="M 21.40063509461097,-12.933012701892217 L 21.90063509461097,-12.06698729810778 A 59.95225421979258 59.95225421979258 0 0 1 39.70119761537737,-18.849694622484883 L 39.49810992922477,-19.828855177109702 A 60.95225421979258 60.95225421979258 0 0 0 21.40063509461097,-12.933012701892217 Z M 60.55549359539414,-20.478038836190542 L 60.41310786246306,-19.488227590013942 A 59.95225421979258 59.95225421979258 0 0 1 78.59768030458464,-13.81491552375985 L 77.26057037696881,-11.129373298906327 L 85.08679715051217,-11.142582730131856 L 80.38049354140574,-17.395638490231217 L 79.04338361378991,-14.710096265377693 A 60.95225421979258 60.95225421979258 0 0 0 60.55549359539414,-20.478038836190542"/><text text-anchor="middle" pointer-events="none" font-size="8px" fill="#000000" x="50.01394868487278" y="-17.570358583349872" transform="rotate(180 50.01394868487278 -20.570358583349872)" font-family="sans-serif">road</text></g></g><g class="layer nodes"><g class="node" transform="translate(134.87243925561143,9.02952765352808)"><circle class="outline" cx="0" cy="0" r="25" fill="#F16667" stroke="#eb2728" stroke-width="2px"/><text text-anchor="middle" pointer-events="none" font-family="sans-serif" dy="1.5625" font-size="25" fill="#FFFFFF"/><text text-anchor="middle" pointer-events="none" x="0" y="5" font-size="10px" fill="#FFFFFF" font-family="sans-serif"> Darjeeli…</text></g><g class="node" transform="translate(127.41069102266582,193.2625176359526)"><circle class="outline" cx="0" cy="0" r="25" fill="#D9C8AE" stroke="#c0a378" stroke-width="2px"/><text text-anchor="middle" pointer-events="none" font-family="sans-serif" dy="1.5625" font-size="25" fill="#2A2C34"/><text text-anchor="middle" pointer-events="none" x="0" y="5" font-size="10px" fill="#2A2C34" font-family="sans-serif"> Sandak…</text></g><g class="node" transform="translate(33.0564680699758,43.4172728502477)"><circle class="outline" cx="0" cy="0" r="25" fill="#F16667" stroke="#eb2728" stroke-width="2px"/><text text-anchor="middle" pointer-events="none" font-family="sans-serif" dy="1.5625" font-size="25" fill="#FFFFFF"/><text text-anchor="middle" pointer-events="none" x="0" y="5" font-size="10px" fill="#FFFFFF" font-family="sans-serif"> Rimbik</text></g><g class="node" transform="translate(28.98744814648913,150.11215790470834)"><circle class="outline" cx="0" cy="0" r="25" fill="#8DCC93" stroke="#5db665" stroke-width="2px"/><text text-anchor="middle" pointer-events="none" font-family="sans-serif" dy="1.5625" font-size="25" fill="#2A2C34"/><text text-anchor="middle" pointer-events="none" x="0" y="5" font-size="10px" fill="#2A2C34" font-family="sans-serif"> BhikeB…</text></g></g></svg>