<svg xmlns="http://www.w3.org/2000/svg" width="667.4312744140625" height="653.624755859375" viewBox="-244.45639038085938 -252.061767578125 667.4312744140625 653.624755859375"><title>Neo4j Graph Visualization</title><desc>Created using Neo4j (http://www.neo4j.com/)</desc><g class="layer relationships"><g class="relationship" transform="translate(211.5776489980859 102.79883999506927) rotate(190.24223206152067)"><path class="outline" fill="#A5ABB6" stroke="none" d="M 25 0.5 L 55.655357084718815 0.5 L 55.655357084718815 -0.5 L 25 -0.5 Z M 89.65535708471882 0.5 L 120.31071416943763 0.5 L 120.31071416943763 3.5 L 127.31071416943763 0 L 120.31071416943763 -3.5 L 120.31071416943763 -0.5 L 89.65535708471882 -0.5 Z"/><text text-anchor="middle" pointer-events="none" font-size="8px" fill="#000000" x="72.65535708471882" y="3" transform="rotate(180 72.65535708471882 0)" font-family="sans-serif">ORIGIN</text></g><g class="relationship" transform="translate(211.5776489980859 102.79883999506927) rotate(385.9849639227218)"><path class="outline" fill="#A5ABB6" stroke="none" d="M 25 0.5 L 46.22078974738038 0.5 L 46.22078974738038 -0.5 L 25 -0.5 Z M 104.22078974738038 0.5 L 125.44157949476076 0.5 L 125.44157949476076 3.5 L 132.44157949476076 0 L 125.44157949476076 -3.5 L 125.44157949476076 -0.5 L 104.22078974738038 -0.5 Z"/><text text-anchor="middle" pointer-events="none" font-size="8px" fill="#000000" x="75.22078974738038" y="3" font-family="sans-serif">DESTINATION</text></g><g class="relationship" transform="translate(131.33291406148544 239.82142932079134) rotate(247.0057840278439)"><path class="outline" fill="#A5ABB6" stroke="none" d="M 25 0.5 L 68.6347535604152 0.5 L 68.6347535604152 -0.5 L 25 -0.5 Z M 102.6347535604152 0.5 L 146.2695071208304 0.5 L 146.2695071208304 3.5 L 153.2695071208304 0 L 146.2695071208304 -3.5 L 146.2695071208304 -0.5 L 102.6347535604152 -0.5 Z"/><text text-anchor="middle" pointer-events="none" font-size="8px" fill="#000000" x="85.6347535604152" y="3" transform="rotate(180 85.6347535604152 0)" font-family="sans-serif">ORIGIN</text></g><g class="relationship" transform="translate(131.33291406148544 239.82142932079134) rotate(465.6749960165682)"><path class="outline" fill="#A5ABB6" stroke="none" d="M 25 0.5 L 36.434450661404625 0.5 L 36.434450661404625 -0.5 L 25 -0.5 Z M 94.43445066140463 0.5 L 105.86890132280925 0.5 L 105.86890132280925 3.5 L 112.86890132280925 0 L 105.86890132280925 -3.5 L 105.86890132280925 -0.5 L 94.43445066140463 -0.5 Z"/><text text-anchor="middle" pointer-events="none" font-size="8px" fill="#000000" x="65.43445066140463" y="3" transform="rotate(180 65.43445066140463 0)" font-family="sans-serif">DESTINATION</text></g><g class="relationship" transform="translate(223.8942327424699 161.3081212640992) rotate(207.82023082269336)"><path class="outline" fill="#A5ABB6" stroke="none" d="M 25 0.5 L 71.19901606256786 0.5 L 71.19901606256786 -0.5 L 25 -0.5 Z M 105.19901606256786 0.5 L 151.39803212513573 0.5 L 151.39803212513573 3.5 L 158.39803212513573 0 L 151.39803212513573 -3.5 L 151.39803212513573 -0.5 L 105.19901606256786 -0.5 Z"/><text text-anchor="middle" pointer-events="none" font-size="8px" fill="#000000" x="88.19901606256786" y="3" transform="rotate(180 88.19901606256786 0)" font-family="sans-serif">ORIGIN</text></g><g class="relationship" transform="translate(223.8942327424699 161.3081212640992) rotate(364.63326719921747)"><path class="outline" fill="#A5ABB6" stroke="none" d="M 25 0.5 L 32.31634940084123 0.5 L 32.31634940084123 -0.5 L 25 -0.5 Z M 90.31634940084123 0.5 L 97.63269880168247 0.5 L 97.63269880168247 3.5 L 104.63269880168247 0 L 97.63269880168247 -3.5 L 97.63269880168247 -0.5 L 90.31634940084123 -0.5 Z"/><text text-anchor="middle" pointer-events="none" font-size="8px" fill="#000000" x="61.31634940084123" y="3" font-family="sans-serif">DESTINATION</text></g><g class="relationship" transform="translate(-59.03001826553204 -30.963243453066433) rotate(401.4659260848826)"><path class="outline" fill="#A5ABB6" stroke="none" d="M 25 0.5 L 60.052551645210926 0.5 L 60.052551645210926 -0.5 L 25 -0.5 Z M 94.05255164521093 0.5 L 129.10510329042185 0.5 L 129.10510329042185 3.5 L 136.10510329042185 0 L 129.10510329042185 -3.5 L 129.10510329042185 -0.5 L 94.05255164521093 -0.5 Z"/><text text-anchor="middle" pointer-events="none" font-size="8px" fill="#000000" x="77.05255164521093" y="3" font-family="sans-serif">ORIGIN</text></g><g class="relationship" transform="translate(-59.03001826553204 -30.963243453066433) rotate(517.0250023815622)"><path class="outline" fill="#A5ABB6" stroke="none" d="M 25 0.5 L 52.45198003008875 0.5 L 52.45198003008875 -0.5 L 25 -0.5 Z M 110.45198003008875 0.5 L 137.9039600601775 0.5 L 137.9039600601775 3.5 L 144.9039600601775 0 L 137.9039600601775 -3.5 L 137.9039600601775 -0.5 L 110.45198003008875 -0.5 Z"/><text text-anchor="middle" pointer-events="none" font-size="8px" fill="#000000" x="81.45198003008875" y="3" transform="rotate(180 81.45198003008875 0)" font-family="sans-serif">DESTINATION</text></g><g class="relationship" transform="translate(192.2803409572267 -65.87011560014557) rotate(492.6855677184136)"><path class="outline" fill="#A5ABB6" stroke="none" d="M 25 0.5 L 75.80620376770726 0.5 L 75.80620376770726 -0.5 L 25 -0.5 Z M 109.80620376770726 0.5 L 160.61240753541452 0.5 L 160.61240753541452 3.5 L 167.61240753541452 0 L 160.61240753541452 -3.5 L 160.61240753541452 -0.5 L 109.80620376770726 -0.5 Z"/><text text-anchor="middle" pointer-events="none" font-size="8px" fill="#000000" x="92.80620376770726" y="3" transform="rotate(180 92.80620376770726 0)" font-family="sans-serif">ORIGIN</text></g><g class="relationship" transform="translate(192.2803409572267 -65.87011560014557) rotate(310.5043739167117)"><path class="outline" fill="#A5ABB6" stroke="none" d="M 25 0.5 L 26.541134210384364 0.5 L 26.541134210384364 -0.5 L 25 -0.5 Z M 69.54113421038437 0.5 L 71.08226842076873 0.5 L 71.08226842076873 3.5 L 78.08226842076873 0 L 71.08226842076873 -3.5 L 71.08226842076873 -0.5 L 69.54113421038437 -0.5 Z"/><text text-anchor="middle" pointer-events="none" font-size="8px" fill="#000000" x="48.041134210384364" y="3" font-family="sans-serif">DESTIN…</text></g><g class="relationship" transform="translate(136.32840505324165 -87.4461084695632) rotate(474.5804646220291)"><path class="outline" fill="#A5ABB6" stroke="none" d="M 25 0.5 L 69.21107843503475 0.5 L 69.21107843503475 -0.5 L 25 -0.5 Z M 103.21107843503475 0.5 L 147.4221568700695 0.5 L 147.4221568700695 3.5 L 154.4221568700695 0 L 147.4221568700695 -3.5 L 147.4221568700695 -0.5 L 103.21107843503475 -0.5 Z"/><text text-anchor="middle" pointer-events="none" font-size="8px" fill="#000000" x="86.21107843503475" y="3" transform="rotate(180 86.21107843503475 0)" font-family="sans-serif">ORIGIN</text></g><g class="relationship" transform="translate(136.32840505324165 -87.4461084695632) rotate(335.19484575184435)"><path class="outline" fill="#A5ABB6" stroke="none" d="M 25 0.5 L 35.19809226819419 0.5 L 35.19809226819419 -0.5 L 25 -0.5 Z M 93.19809226819419 0.5 L 103.39618453638838 0.5 L 103.39618453638838 3.5 L 110.39618453638838 0 L 103.39618453638838 -3.5 L 103.39618453638838 -0.5 L 93.19809226819419 -0.5 Z"/><text text-anchor="middle" pointer-events="none" font-size="8px" fill="#000000" x="64.19809226819419" y="3" font-family="sans-serif">DESTINATION</text></g><g class="relationship" transform="translate(79.5740084230261 209.63560964353522) rotate(262.3952318411783)"><path class="outline" fill="#A5ABB6" stroke="none" d="M 25 0.5 L 47.05374579229779 0.5 L 47.05374579229779 -0.5 L 25 -0.5 Z M 81.05374579229779 0.5 L 103.10749158459558 0.5 L 103.10749158459558 3.5 L 110.10749158459558 0 L 103.10749158459558 -3.5 L 103.10749158459558 -0.5 L 81.05374579229779 -0.5 Z"/><text text-anchor="middle" pointer-events="none" font-size="8px" fill="#000000" x="64.05374579229779" y="3" transform="rotate(180 64.05374579229779 0)" font-family="sans-serif">ORIGIN</text></g><g class="relationship" transform="translate(79.5740084230261 209.63560964353522) rotate(444.91096681304083)"><path class="outline" fill="#A5ABB6" stroke="none" d="M 25 0.5 L 49.28606631118234 0.5 L 49.28606631118234 -0.5 L 25 -0.5 Z M 107.28606631118234 0.5 L 131.57213262236468 0.5 L 131.57213262236468 3.5 L 138.57213262236468 0 L 131.57213262236468 -3.5 L 131.57213262236468 -0.5 L 107.28606631118234 -0.5 Z"/><text text-anchor="middle" pointer-events="none" font-size="8px" fill="#000000" x="78.28606631118234" y="3" font-family="sans-serif">DESTINATION</text></g><g class="relationship" transform="translate(-117.39458022722107 46.02367928119973) rotate(369.4139638759998)"><path class="outline" fill="#A5ABB6" stroke="none" d="M 25 0.5 L 70.26672388296468 0.5 L 70.26672388296468 -0.5 L 25 -0.5 Z M 104.26672388296468 0.5 L 149.53344776592937 0.5 L 149.53344776592937 3.5 L 156.53344776592937 0 L 149.53344776592937 -3.5 L 149.53344776592937 -0.5 L 104.26672388296468 -0.5 Z"/><text text-anchor="middle" pointer-events="none" font-size="8px" fill="#000000" x="87.26672388296468" y="3" font-family="sans-serif">ORIGIN</text></g><g class="relationship" transform="translate(-117.39458022722107 46.02367928119973) rotate(186.2089441607884)"><path class="outline" fill="#A5ABB6" stroke="none" d="M 25 0.5 L 27.320214034501696 0.5 L 27.320214034501696 -0.5 L 25 -0.5 Z M 64.3202140345017 0.5 L 66.64042806900339 0.5 L 66.64042806900339 3.5 L 73.64042806900339 0 L 66.64042806900339 -3.5 L 66.64042806900339 -0.5 L 64.3202140345017 -0.5 Z"/><text text-anchor="middle" pointer-events="none" font-size="8px" fill="#000000" x="45.820214034501696" y="3" transform="rotate(180 45.820214034501696 0)" font-family="sans-serif">DESTI…</text></g><g class="relationship" transform="translate(-60.156652861979246 28.892382174052184) rotate(381.02047744328735)"><path class="outline" fill="#A5ABB6" stroke="none" d="M 25 0.5 L 44.768835417321114 0.5 L 44.768835417321114 -0.5 L 25 -0.5 Z M 78.76883541732111 0.5 L 98.53767083464223 0.5 L 98.53767083464223 3.5 L 105.53767083464223 0 L 98.53767083464223 -3.5 L 98.53767083464223 -0.5 L 78.76883541732111 -0.5 Z"/><text text-anchor="middle" pointer-events="none" font-size="8px" fill="#000000" x="61.768835417321114" y="3" font-family="sans-serif">ORIGIN</text></g><g class="relationship" transform="translate(-60.156652861979246 28.892382174052184) rotate(537.6169788342215)"><path class="outline" fill="#A5ABB6" stroke="none" d="M 25 0.5 L 45.217079988538586 0.5 L 45.217079988538586 -0.5 L 25 -0.5 Z M 103.21707998853859 0.5 L 123.43415997707717 0.5 L 123.43415997707717 3.5 L 130.43415997707717 0 L 123.43415997707717 -3.5 L 123.43415997707717 -0.5 L 103.21707998853859 -0.5 Z"/><text text-anchor="middle" pointer-events="none" font-size="8px" fill="#000000" x="74.21707998853859" y="3" transform="rotate(180 74.21707998853859 0)" font-family="sans-serif">DESTINATION</text></g><g class="relationship" transform="translate(-116.20525852075059 -13.896655642858693) rotate(386.7357400274583)"><path class="outline" fill="#A5ABB6" stroke="none" d="M 25 0.5 L 79.09752442539131 0.5 L 79.09752442539131 -0.5 L 25 -0.5 Z M 113.09752442539131 0.5 L 167.19504885078263 0.5 L 167.19504885078263 3.5 L 174.19504885078263 0 L 167.19504885078263 -3.5 L 167.19504885078263 -0.5 L 113.09752442539131 -0.5 Z"/><text text-anchor="middle" pointer-events="none" font-size="8px" fill="#000000" x="96.09752442539131" y="3" font-family="sans-serif">ORIGIN</text></g><g class="relationship" transform="translate(-116.20525852075059 -13.896655642858693) rotate(513.6077660540735)"><path class="outline" fill="#A5ABB6" stroke="none" d="M 25 0.5 L 25.899773615567142 0.5 L 25.899773615567142 -0.5 L 25 -0.5 Z M 77.89977361556714 0.5 L 78.79954723113428 0.5 L 78.79954723113428 3.5 L 85.79954723113428 0 L 78.79954723113428 -3.5 L 78.79954723113428 -0.5 L 77.89977361556714 -0.5 Z"/><text text-anchor="middle" pointer-events="none" font-size="8px" fill="#000000" x="51.89977361556714" y="3" transform="rotate(180 51.89977361556714 0)" font-family="sans-serif">DESTINAT…</text></g><g class="relationship" transform="translate(172.13762560004932 191.61570636984837) rotate(226.38076363254095)"><path class="outline" fill="#A5ABB6" stroke="none" d="M 25 0.5 L 59.54752340293085 0.5 L 59.54752340293085 -0.5 L 25 -0.5 Z M 93.54752340293085 0.5 L 128.0950468058617 0.5 L 128.0950468058617 3.5 L 135.0950468058617 0 L 128.0950468058617 -3.5 L 128.0950468058617 -0.5 L 93.54752340293085 -0.5 Z"/><text text-anchor="middle" pointer-events="none" font-size="8px" fill="#000000" x="76.54752340293085" y="3" transform="rotate(180 76.54752340293085 0)" font-family="sans-serif">ORIGIN</text></g><g class="relationship" transform="translate(172.13762560004932 191.61570636984837) rotate(407.8261252471308)"><path class="outline" fill="#A5ABB6" stroke="none" d="M 25 0.5 L 49.90448173555737 0.5 L 49.90448173555737 -0.5 L 25 -0.5 Z M 107.90448173555737 0.5 L 132.80896347111474 0.5 L 132.80896347111474 3.5 L 139.80896347111474 0 L 132.80896347111474 -3.5 L 132.80896347111474 -0.5 L 107.90448173555737 -0.5 Z"/><text text-anchor="middle" pointer-events="none" font-size="8px" fill="#000000" x="78.90448173555737" y="3" font-family="sans-serif">DESTINATION</text></g><g class="relationship" transform="translate(145.8012829544387 -28.309091057724714) rotate(488.95640422110034)"><path class="outline" fill="#A5ABB6" stroke="none" d="M 25 0.5 L 46.38673791156805 0.5 L 46.38673791156805 -0.5 L 25 -0.5 Z M 80.38673791156805 0.5 L 101.7734758231361 0.5 L 101.7734758231361 3.5 L 108.7734758231361 0 L 101.7734758231361 -3.5 L 101.7734758231361 -0.5 L 80.38673791156805 -0.5 Z"/><text text-anchor="middle" pointer-events="none" font-size="8px" fill="#000000" x="63.38673791156805" y="3" transform="rotate(180 63.38673791156805 0)" font-family="sans-serif">ORIGIN</text></g><g class="relationship" transform="translate(145.8012829544387 -28.309091057724714) rotate(314.3733747157348)"><path class="outline" fill="#A5ABB6" stroke="none" d="M 25 0.5 L 48.60006495590001 0.5 L 48.60006495590001 -0.5 L 25 -0.5 Z M 106.60006495590001 0.5 L 130.20012991180002 0.5 L 130.20012991180002 3.5 L 137.20012991180002 0 L 130.20012991180002 -3.5 L 130.20012991180002 -0.5 L 106.60006495590001 -0.5 Z"/><text text-anchor="middle" pointer-events="none" font-size="8px" fill="#000000" x="77.60006495590001" y="3" font-family="sans-serif">DESTINATION</text></g><g class="relationship" transform="translate(-37.91044077286197 211.83451625800876) rotate(306.1948224356143)"><path class="outline" fill="#A5ABB6" stroke="none" d="M 25 0.5 L 63.83442199806373 0.5 L 63.83442199806373 -0.5 L 25 -0.5 Z M 97.83442199806373 0.5 L 136.66884399612746 0.5 L 136.66884399612746 3.5 L 143.66884399612746 0 L 136.66884399612746 -3.5 L 136.66884399612746 -0.5 L 97.83442199806373 -0.5 Z"/><text text-anchor="middle" pointer-events="none" font-size="8px" fill="#000000" x="80.83442199806373" y="3" font-family="sans-serif">ORIGIN</text></g><g class="relationship" transform="translate(-37.91044077286197 211.83451625800876) rotate(485.37425827055614)"><path class="outline" fill="#A5ABB6" stroke="none" d="M 25 0.5 L 45.64813567745625 0.5 L 45.64813567745625 -0.5 L 25 -0.5 Z M 103.64813567745625 0.5 L 124.2962713549125 0.5 L 124.2962713549125 3.5 L 131.2962713549125 0 L 124.2962713549125 -3.5 L 124.2962713549125 -0.5 L 103.64813567745625 -0.5 Z"/><text text-anchor="middle" pointer-events="none" font-size="8px" fill="#000000" x="74.64813567745625" y="3" transform="rotate(180 74.64813567745625 0)" font-family="sans-serif">DESTINATION</text></g><g class="relationship" transform="translate(237.134591056756 48.493859224588604) rotate(531.17992084857)"><path class="outline" fill="#A5ABB6" stroke="none" d="M 25 0.5 L 68.2700096434385 0.5 L 68.2700096434385 -0.5 L 25 -0.5 Z M 102.2700096434385 0.5 L 145.540019286877 0.5 L 145.540019286877 3.5 L 152.540019286877 0 L 145.540019286877 -3.5 L 145.540019286877 -0.5 L 102.2700096434385 -0.5 Z"/><text text-anchor="middle" pointer-events="none" font-size="8px" fill="#000000" x="85.2700096434385" y="3" transform="rotate(180 85.2700096434385 0)" font-family="sans-serif">ORIGIN</text></g><g class="relationship" transform="translate(237.134591056756 48.493859224588604) rotate(350.9717350894791)"><path class="outline" fill="#A5ABB6" stroke="none" d="M 25 0.5 L 46.90389653671389 0.5 L 46.90389653671389 -0.5 L 25 -0.5 Z M 104.90389653671389 0.5 L 126.80779307342777 0.5 L 126.80779307342777 3.5 L 133.80779307342777 0 L 126.80779307342777 -3.5 L 126.80779307342777 -0.5 L 104.90389653671389 -0.5 Z"/><text text-anchor="middle" pointer-events="none" font-size="8px" fill="#000000" x="75.90389653671389" y="3" font-family="sans-serif">DESTINATION</text></g><g class="relationship" transform="translate(-131.49370628587488 104.33181309173956) rotate(351.57449505219506)"><path class="outline" fill="#A5ABB6" stroke="none" d="M 25 0.5 L 77.14776248515142 0.5 L 77.14776248515142 -0.5 L 25 -0.5 Z M 111.14776248515142 0.5 L 163.29552497030284 0.5 L 163.29552497030284 3.5 L 170.29552497030284 0 L 163.29552497030284 -3.5 L 163.29552497030284 -0.5 L 111.14776248515142 -0.5 Z"/><text text-anchor="middle" pointer-events="none" font-size="8px" fill="#000000" x="94.14776248515142" y="3" font-family="sans-serif">ORIGIN</text></g><g class="relationship" transform="translate(-131.49370628587488 104.33181309173956) rotate(219.40359224291973)"><path class="outline" fill="#A5ABB6" stroke="none" d="M 25 0.5 L 26.831152220638145 0.5 L 26.831152220638145 -0.5 L 25 -0.5 Z M 74.83115222063815 0.5 L 76.66230444127629 0.5 L 76.66230444127629 3.5 L 83.66230444127629 0 L 76.66230444127629 -3.5 L 76.66230444127629 -0.5 L 74.83115222063815 -0.5 Z"/><text text-anchor="middle" pointer-events="none" font-size="8px" fill="#000000" x="50.831152220638145" y="3" transform="rotate(180 50.831152220638145 0)" font-family="sans-serif">DESTINA…</text></g><g class="relationship" transform="translate(2.8927211567398636 -84.69820907558453) rotate(429.86917369812204)"><path class="outline" fill="#A5ABB6" stroke="none" d="M 25 0.5 L 64.92607608245216 0.5 L 64.92607608245216 -0.5 L 25 -0.5 Z M 98.92607608245216 0.5 L 138.8521521649043 0.5 L 138.8521521649043 3.5 L 145.8521521649043 0 L 138.8521521649043 -3.5 L 138.8521521649043 -0.5 L 98.92607608245216 -0.5 Z"/><text text-anchor="middle" pointer-events="none" font-size="8px" fill="#000000" x="81.92607608245216" y="3" font-family="sans-serif">ORIGIN</text></g><g class="relationship" transform="translate(2.8927211567398636 -84.69820907558453) rotate(273.1152468137954)"><path class="outline" fill="#A5ABB6" stroke="none" d="M 25 0.5 L 36.78416493032762 0.5 L 36.78416493032762 -0.5 L 25 -0.5 Z M 94.78416493032762 0.5 L 106.56832986065524 0.5 L 106.56832986065524 3.5 L 113.56832986065524 0 L 106.56832986065524 -3.5 L 106.56832986065524 -0.5 L 94.78416493032762 -0.5 Z"/><text text-anchor="middle" pointer-events="none" font-size="8px" fill="#000000" x="65.78416493032762" y="3" font-family="sans-serif">DESTINATION</text></g><g class="relationship" transform="translate(24.62445546362909 244.97494723086376) rotate(282.35339225422604)"><path class="outline" fill="#A5ABB6" stroke="none" d="M 25 0.5 L 66.13514288761725 0.5 L 66.13514288761725 -0.5 L 25 -0.5 Z M 100.13514288761725 0.5 L 141.2702857752345 0.5 L 141.2702857752345 3.5 L 148.2702857752345 0 L 141.2702857752345 -3.5 L 141.2702857752345 -0.5 L 100.13514288761725 -0.5 Z"/><text text-anchor="middle" pointer-events="none" font-size="8px" fill="#000000" x="83.13514288761725" y="3" font-family="sans-serif">ORIGIN</text></g><g class="relationship" transform="translate(24.62445546362909 244.97494723086376) rotate(421.4360969262241)"><path class="outline" fill="#A5ABB6" stroke="none" d="M 25 0.5 L 40.13479032573578 0.5 L 40.13479032573578 -0.5 L 25 -0.5 Z M 98.13479032573578 0.5 L 113.26958065147156 0.5 L 113.26958065147156 3.5 L 120.26958065147156 0 L 113.26958065147156 -3.5 L 113.26958065147156 -0.5 L 98.13479032573578 -0.5 Z"/><text text-anchor="middle" pointer-events="none" font-size="8px" fill="#000000" x="69.13479032573578" y="3" font-family="sans-serif">DESTINATION</text></g><g class="relationship" transform="translate(206.52497155269677 -7.7638997374246355) rotate(510.0409111541473)"><path class="outline" fill="#A5ABB6" stroke="none" d="M 25 0.5 L 63.08374459972745 0.5 L 63.08374459972745 -0.5 L 25 -0.5 Z M 97.08374459972745 0.5 L 135.1674891994549 0.5 L 135.1674891994549 3.5 L 142.1674891994549 0 L 135.1674891994549 -3.5 L 135.1674891994549 -0.5 L 97.08374459972745 -0.5 Z"/><text text-anchor="middle" pointer-events="none" font-size="8px" fill="#000000" x="80.08374459972745" y="3" transform="rotate(180 80.08374459972745 0)" font-family="sans-serif">ORIGIN</text></g><g class="relationship" transform="translate(206.52497155269677 -7.7638997374246355) rotate(291.1155525153701)"><path class="outline" fill="#A5ABB6" stroke="none" d="M 25 0.5 L 40.654650200593295 0.5 L 40.654650200593295 -0.5 L 25 -0.5 Z M 98.6546502005933 0.5 L 114.30930040118659 0.5 L 114.30930040118659 3.5 L 121.30930040118659 0 L 114.30930040118659 -3.5 L 114.30930040118659 -0.5 L 98.6546502005933 -0.5 Z"/><text text-anchor="middle" pointer-events="none" font-size="8px" fill="#000000" x="69.6546502005933" y="3" font-family="sans-serif">DESTINATION</text></g><g class="relationship" transform="translate(62.27312913449495 -92.41235588935402) rotate(450.19734600923846)"><path class="outline" fill="#A5ABB6" stroke="none" d="M 25 0.5 L 63.56490253927973 0.5 L 63.56490253927973 -0.5 L 25 -0.5 Z M 97.56490253927973 0.5 L 136.12980507855946 0.5 L 136.12980507855946 3.5 L 143.12980507855946 0 L 136.12980507855946 -3.5 L 136.12980507855946 -0.5 L 97.56490253927973 -0.5 Z"/><text text-anchor="middle" pointer-events="none" font-size="8px" fill="#000000" x="80.56490253927973" y="3" transform="rotate(180 80.56490253927973 0)" font-family="sans-serif">ORIGIN</text></g><g class="relationship" transform="translate(62.27312913449495 -92.41235588935402) rotate(248.35368097376494)"><path class="outline" fill="#A5ABB6" stroke="none" d="M 25 0.5 L 37.781023835290554 0.5 L 37.781023835290554 -0.5 L 25 -0.5 Z M 95.78102383529055 0.5 L 108.56204767058111 0.5 L 108.56204767058111 3.5 L 115.56204767058111 0 L 108.56204767058111 -3.5 L 108.56204767058111 -0.5 L 95.78102383529055 -0.5 Z"/><text text-anchor="middle" pointer-events="none" font-size="8px" fill="#000000" x="66.78102383529055" y="3" transform="rotate(180 66.78102383529055 0)" font-family="sans-serif">DESTINATION</text></g><g class="relationship" transform="translate(79.23780880790355 269.3940373772728) rotate(264.82413803505847)"><path class="outline" fill="#A5ABB6" stroke="none" d="M 25 0.5 L 76.73527027083266 0.5 L 76.73527027083266 -0.5 L 25 -0.5 Z M 110.73527027083266 0.5 L 162.47054054166532 0.5 L 162.47054054166532 3.5 L 169.47054054166532 0 L 162.47054054166532 -3.5 L 162.47054054166532 -0.5 L 110.73527027083266 -0.5 Z"/><text text-anchor="middle" pointer-events="none" font-size="8px" fill="#000000" x="93.73527027083266" y="3" transform="rotate(180 93.73527027083266 0)" font-family="sans-serif">ORIGIN</text></g><g class="relationship" transform="translate(79.23780880790355 269.3940373772728) rotate(441.81154717097394)"><path class="outline" fill="#A5ABB6" stroke="none" d="M 25 0.5 L 27.11577953578462 0.5 L 27.11577953578462 -0.5 L 25 -0.5 Z M 70.11577953578461 0.5 L 72.23155907156924 0.5 L 72.23155907156924 3.5 L 79.23155907156924 0 L 72.23155907156924 -3.5 L 72.23155907156924 -0.5 L 70.11577953578461 -0.5 Z"/><text text-anchor="middle" pointer-events="none" font-size="8px" fill="#000000" x="48.61577953578462" y="3" font-family="sans-serif">DESTIN…</text></g><g class="relationship" transform="translate(-74.03472054105303 87.19650074630025) rotate(355.16538311410534)"><path class="outline" fill="#A5ABB6" stroke="none" d="M 25 0.5 L 47.606692874915666 0.5 L 47.606692874915666 -0.5 L 25 -0.5 Z M 81.60669287491567 0.5 L 104.21338574983133 0.5 L 104.21338574983133 3.5 L 111.21338574983133 0 L 104.21338574983133 -3.5 L 104.21338574983133 -0.5 L 81.60669287491567 -0.5 Z"/><text text-anchor="middle" pointer-events="none" font-size="8px" fill="#000000" x="64.60669287491567" y="3" font-family="sans-serif">ORIGIN</text></g><g class="relationship" transform="translate(-74.03472054105303 87.19650074630025) rotate(200.1315245931509)"><path class="outline" fill="#A5ABB6" stroke="none" d="M 25 0.5 L 42.81202212894378 0.5 L 42.81202212894378 -0.5 L 25 -0.5 Z M 100.81202212894378 0.5 L 118.62404425788756 0.5 L 118.62404425788756 3.5 L 125.62404425788756 0 L 118.62404425788756 -3.5 L 118.62404425788756 -0.5 L 100.81202212894378 -0.5 Z"/><text text-anchor="middle" pointer-events="none" font-size="8px" fill="#000000" x="71.81202212894378" y="3" transform="rotate(180 71.81202212894378 0)" font-family="sans-serif">DESTINATION</text></g><g class="relationship" transform="translate(-88.14297617323518 145.3917964031768) rotate(335.061215632017)"><path class="outline" fill="#A5ABB6" stroke="none" d="M 25 0.5 L 62.12230841351621 0.5 L 62.12230841351621 -0.5 L 25 -0.5 Z M 96.12230841351621 0.5 L 133.24461682703242 0.5 L 133.24461682703242 3.5 L 140.24461682703242 0 L 133.24461682703242 -3.5 L 133.24461682703242 -0.5 L 96.12230841351621 -0.5 Z"/><text text-anchor="middle" pointer-events="none" font-size="8px" fill="#000000" x="79.12230841351621" y="3" font-family="sans-serif">ORIGIN</text></g><g class="relationship" transform="translate(-88.14297617323518 145.3917964031768) rotate(220.8367379172288)"><path class="outline" fill="#A5ABB6" stroke="none" d="M 25 0.5 L 51.63789795548111 0.5 L 51.63789795548111 -0.5 L 25 -0.5 Z M 109.63789795548111 0.5 L 136.27579591096222 0.5 L 136.27579591096222 3.5 L 143.27579591096222 0 L 136.27579591096222 -3.5 L 136.27579591096222 -0.5 L 109.63789795548111 -0.5 Z"/><text text-anchor="middle" pointer-events="none" font-size="8px" fill="#000000" x="80.63789795548111" y="3" transform="rotate(180 80.63789795548111 0)" font-family="sans-serif">DESTINATION</text></g></g><g class="layer nodes"><g class="node" transform="translate(61.69403446567529,75.71645188944083)"><circle class="outline" cx="0" cy="0" r="25" fill="#ECB5C9" stroke="#da7298" stroke-width="2px"/><text text-anchor="middle" pointer-events="none" font-family="sans-serif" dy="1.5625" font-size="25" fill="#2A2C34"/><text text-anchor="middle" pointer-events="none" x="0" y="5" font-size="10px" fill="#2A2C34" font-family="sans-serif"> LAX</text></g><g class="node" transform="translate(353.1033107030093,171.77954768054207)"><circle class="outline" cx="0" cy="0" r="25" fill="#ECB5C9" stroke="#da7298" stroke-width="2px"/><text text-anchor="middle" pointer-events="none" font-family="sans-serif" dy="1.5625" font-size="25" fill="#2A2C34"/><text text-anchor="middle" pointer-events="none" x="0" y="5" font-size="10px" fill="#2A2C34" font-family="sans-serif"> EWR</text></g><g class="node" transform="translate(94.08345297242073,372.5629510859601)"><circle class="outline" cx="0" cy="0" r="25" fill="#ECB5C9" stroke="#da7298" stroke-width="2px"/><text text-anchor="middle" pointer-events="none" font-family="sans-serif" dy="1.5625" font-size="25" fill="#2A2C34"/><text text-anchor="middle" pointer-events="none" x="0" y="5" font-size="10px" fill="#2A2C34" font-family="sans-serif"> SMF</text></g><g class="node" transform="translate(-215.45639268065028,35.35526852866936)"><circle class="outline" cx="0" cy="0" r="25" fill="#ECB5C9" stroke="#da7298" stroke-width="2px"/><text text-anchor="middle" pointer-events="none" font-family="sans-serif" dy="1.5625" font-size="25" fill="#2A2C34"/><text text-anchor="middle" pointer-events="none" x="0" y="5" font-size="10px" fill="#2A2C34" font-family="sans-serif"> ABQ</text></g><g class="node" transform="translate(259.2329026094544,-144.2493765750748)"><circle class="outline" cx="0" cy="0" r="25" fill="#ECB5C9" stroke="#da7298" stroke-width="2px"/><text text-anchor="middle" pointer-events="none" font-family="sans-serif" dy="1.5625" font-size="25" fill="#2A2C34"/><text text-anchor="middle" pointer-events="none" x="0" y="5" font-size="10px" fill="#2A2C34" font-family="sans-serif"> FAT</text></g><g class="node" transform="translate(282.78751802752936,313.75740992031604)"><circle class="outline" cx="0" cy="0" r="25" fill="#ECB5C9" stroke="#da7298" stroke-width="2px"/><text text-anchor="middle" pointer-events="none" font-family="sans-serif" dy="1.5625" font-size="25" fill="#2A2C34"/><text text-anchor="middle" pointer-events="none" x="0" y="5" font-size="10px" fill="#2A2C34" font-family="sans-serif"> IAH</text></g><g class="node" transform="translate(-128.3926802867563,339.2766159425271)"><circle class="outline" cx="0" cy="0" r="25" fill="#ECB5C9" stroke="#da7298" stroke-width="2px"/><text text-anchor="middle" pointer-events="none" font-family="sans-serif" dy="1.5625" font-size="25" fill="#2A2C34"/><text text-anchor="middle" pointer-events="none" x="0" y="5" font-size="10px" fill="#2A2C34" font-family="sans-serif"> BOS</text></g><g class="node" transform="translate(393.9749221364576,23.5734722359755)"><circle class="outline" cx="0" cy="0" r="25" fill="#ECB5C9" stroke="#da7298" stroke-width="2px"/><text text-anchor="middle" pointer-events="none" font-family="sans-serif" dy="1.5625" font-size="25" fill="#2A2C34"/><text text-anchor="middle" pointer-events="none" x="0" y="5" font-size="10px" fill="#2A2C34" font-family="sans-serif"> LAS</text></g><g class="node" transform="translate(10.423151744860162,-223.06176878524528)"><circle class="outline" cx="0" cy="0" r="25" fill="#ECB5C9" stroke="#da7298" stroke-width="2px"/><text text-anchor="middle" pointer-events="none" font-family="sans-serif" dy="1.5625" font-size="25" fill="#2A2C34"/><text text-anchor="middle" pointer-events="none" x="0" y="5" font-size="10px" fill="#2A2C34" font-family="sans-serif"> TUS</text></g><g class="node" transform="translate(211.5776489980859,102.79883999506927)"><circle class="outline" cx="0" cy="0" r="25" fill="#4C8EDA" stroke="#2870c2" stroke-width="2px"/><text text-anchor="middle" pointer-events="none" font-family="sans-serif" dy="1.5625" font-size="25" fill="#FFFFFF"/><text text-anchor="middle" pointer-events="none" x="0" y="5" font-size="10px" fill="#FFFFFF" font-family="sans-serif"> 11/29/2…</text></g><g class="node" transform="translate(131.33291406148544,239.82142932079134)"><circle class="outline" cx="0" cy="0" r="25" fill="#4C8EDA" stroke="#2870c2" stroke-width="2px"/><text text-anchor="middle" pointer-events="none" font-family="sans-serif" dy="1.5625" font-size="25" fill="#FFFFFF"/><text text-anchor="middle" pointer-events="none" x="0" y="5" font-size="10px" fill="#FFFFFF" font-family="sans-serif"> 11/1/20…</text></g><g class="node" transform="translate(223.8942327424699,161.3081212640992)"><circle class="outline" cx="0" cy="0" r="25" fill="#4C8EDA" stroke="#2870c2" stroke-width="2px"/><text text-anchor="middle" pointer-events="none" font-family="sans-serif" dy="1.5625" font-size="25" fill="#FFFFFF"/><text text-anchor="middle" pointer-events="none" x="0" y="5" font-size="10px" fill="#FFFFFF" font-family="sans-serif"> 11/30/2…</text></g><g class="node" transform="translate(-59.03001826553204,-30.963243453066433)"><circle class="outline" cx="0" cy="0" r="25" fill="#4C8EDA" stroke="#2870c2" stroke-width="2px"/><text text-anchor="middle" pointer-events="none" font-family="sans-serif" dy="1.5625" font-size="25" fill="#FFFFFF"/><text text-anchor="middle" pointer-events="none" x="0" y="5" font-size="10px" fill="#FFFFFF" font-family="sans-serif"> 11/1/20…</text></g><g class="node" transform="translate(192.2803409572267,-65.87011560014557)"><circle class="outline" cx="0" cy="0" r="25" fill="#4C8EDA" stroke="#2870c2" stroke-width="2px"/><text text-anchor="middle" pointer-events="none" font-family="sans-serif" dy="1.5625" font-size="25" fill="#FFFFFF"/><text text-anchor="middle" pointer-events="none" x="0" y="5" font-size="10px" fill="#FFFFFF" font-family="sans-serif"> 11/4/20…</text></g><g class="node" transform="translate(136.32840505324165,-87.4461084695632)"><circle class="outline" cx="0" cy="0" r="25" fill="#4C8EDA" stroke="#2870c2" stroke-width="2px"/><text text-anchor="middle" pointer-events="none" font-family="sans-serif" dy="1.5625" font-size="25" fill="#FFFFFF"/><text text-anchor="middle" pointer-events="none" x="0" y="5" font-size="10px" fill="#FFFFFF" font-family="sans-serif"> 11/2/20…</text></g><g class="node" transform="translate(79.5740084230261,209.63560964353522)"><circle class="outline" cx="0" cy="0" r="25" fill="#4C8EDA" stroke="#2870c2" stroke-width="2px"/><text text-anchor="middle" pointer-events="none" font-family="sans-serif" dy="1.5625" font-size="25" fill="#FFFFFF"/><text text-anchor="middle" pointer-events="none" x="0" y="5" font-size="10px" fill="#FFFFFF" font-family="sans-serif"> 11/3/20…</text></g><g class="node" transform="translate(-117.39458022722107,46.02367928119973)"><circle class="outline" cx="0" cy="0" r="25" fill="#4C8EDA" stroke="#2870c2" stroke-width="2px"/><text text-anchor="middle" pointer-events="none" font-family="sans-serif" dy="1.5625" font-size="25" fill="#FFFFFF"/><text text-anchor="middle" pointer-events="none" x="0" y="5" font-size="10px" fill="#FFFFFF" font-family="sans-serif"> 11/3/20…</text></g><g class="node" transform="translate(-60.156652861979246,28.892382174052184)"><circle class="outline" cx="0" cy="0" r="25" fill="#4C8EDA" stroke="#2870c2" stroke-width="2px"/><text text-anchor="middle" pointer-events="none" font-family="sans-serif" dy="1.5625" font-size="25" fill="#FFFFFF"/><text text-anchor="middle" pointer-events="none" x="0" y="5" font-size="10px" fill="#FFFFFF" font-family="sans-serif"> 11/2/20…</text></g><g class="node" transform="translate(-116.20525852075059,-13.896655642858693)"><circle class="outline" cx="0" cy="0" r="25" fill="#4C8EDA" stroke="#2870c2" stroke-width="2px"/><text text-anchor="middle" pointer-events="none" font-family="sans-serif" dy="1.5625" font-size="25" fill="#FFFFFF"/><text text-anchor="middle" pointer-events="none" x="0" y="5" font-size="10px" fill="#FFFFFF" font-family="sans-serif"> 11/1/20…</text></g><g class="node" transform="translate(172.13762560004932,191.61570636984837)"><circle class="outline" cx="0" cy="0" r="25" fill="#4C8EDA" stroke="#2870c2" stroke-width="2px"/><text text-anchor="middle" pointer-events="none" font-family="sans-serif" dy="1.5625" font-size="25" fill="#FFFFFF"/><text text-anchor="middle" pointer-events="none" x="0" y="5" font-size="10px" fill="#FFFFFF" font-family="sans-serif"> 11/30/2…</text></g><g class="node" transform="translate(145.8012829544387,-28.309091057724714)"><circle class="outline" cx="0" cy="0" r="25" fill="#4C8EDA" stroke="#2870c2" stroke-width="2px"/><text text-anchor="middle" pointer-events="none" font-family="sans-serif" dy="1.5625" font-size="25" fill="#FFFFFF"/><text text-anchor="middle" pointer-events="none" x="0" y="5" font-size="10px" fill="#FFFFFF" font-family="sans-serif"> 11/1/20…</text></g><g class="node" transform="translate(-37.91044077286197,211.83451625800876)"><circle class="outline" cx="0" cy="0" r="25" fill="#4C8EDA" stroke="#2870c2" stroke-width="2px"/><text text-anchor="middle" pointer-events="none" font-family="sans-serif" dy="1.5625" font-size="25" fill="#FFFFFF"/><text text-anchor="middle" pointer-events="none" x="0" y="5" font-size="10px" fill="#FFFFFF" font-family="sans-serif"> 11/29/2…</text></g><g class="node" transform="translate(237.134591056756,48.493859224588604)"><circle class="outline" cx="0" cy="0" r="25" fill="#4C8EDA" stroke="#2870c2" stroke-width="2px"/><text text-anchor="middle" pointer-events="none" font-family="sans-serif" dy="1.5625" font-size="25" fill="#FFFFFF"/><text text-anchor="middle" pointer-events="none" x="0" y="5" font-size="10px" fill="#FFFFFF" font-family="sans-serif"> 11/29/2…</text></g><g class="node" transform="translate(-131.49370628587488,104.33181309173956)"><circle class="outline" cx="0" cy="0" r="25" fill="#4C8EDA" stroke="#2870c2" stroke-width="2px"/><text text-anchor="middle" pointer-events="none" font-family="sans-serif" dy="1.5625" font-size="25" fill="#FFFFFF"/><text text-anchor="middle" pointer-events="none" x="0" y="5" font-size="10px" fill="#FFFFFF" font-family="sans-serif"> 11/4/20…</text></g><g class="node" transform="translate(2.8927211567398636,-84.69820907558453)"><circle class="outline" cx="0" cy="0" r="25" fill="#4C8EDA" stroke="#2870c2" stroke-width="2px"/><text text-anchor="middle" pointer-events="none" font-family="sans-serif" dy="1.5625" font-size="25" fill="#FFFFFF"/><text text-anchor="middle" pointer-events="none" x="0" y="5" font-size="10px" fill="#FFFFFF" font-family="sans-serif"> 11/1/20…</text></g><g class="node" transform="translate(24.62445546362909,244.97494723086376)"><circle class="outline" cx="0" cy="0" r="25" fill="#4C8EDA" stroke="#2870c2" stroke-width="2px"/><text text-anchor="middle" pointer-events="none" font-family="sans-serif" dy="1.5625" font-size="25" fill="#FFFFFF"/><text text-anchor="middle" pointer-events="none" x="0" y="5" font-size="10px" fill="#FFFFFF" font-family="sans-serif"> 11/4/20…</text></g><g class="node" transform="translate(206.52497155269677,-7.7638997374246355)"><circle class="outline" cx="0" cy="0" r="25" fill="#4C8EDA" stroke="#2870c2" stroke-width="2px"/><text text-anchor="middle" pointer-events="none" font-family="sans-serif" dy="1.5625" font-size="25" fill="#FFFFFF"/><text text-anchor="middle" pointer-events="none" x="0" y="5" font-size="10px" fill="#FFFFFF" font-family="sans-serif"> 11/3/20…</text></g><g class="node" transform="translate(62.27312913449495,-92.41235588935402)"><circle class="outline" cx="0" cy="0" r="25" fill="#4C8EDA" stroke="#2870c2" stroke-width="2px"/><text text-anchor="middle" pointer-events="none" font-family="sans-serif" dy="1.5625" font-size="25" fill="#FFFFFF"/><text text-anchor="middle" pointer-events="none" x="0" y="5" font-size="10px" fill="#FFFFFF" font-family="sans-serif"> 11/2/20…</text></g><g class="node" transform="translate(79.23780880790355,269.3940373772728)"><circle class="outline" cx="0" cy="0" r="25" fill="#4C8EDA" stroke="#2870c2" stroke-width="2px"/><text text-anchor="middle" pointer-events="none" font-family="sans-serif" dy="1.5625" font-size="25" fill="#FFFFFF"/><text text-anchor="middle" pointer-events="none" x="0" y="5" font-size="10px" fill="#FFFFFF" font-family="sans-serif"> 11/2/20…</text></g><g class="node" transform="translate(-74.03472054105303,87.19650074630025)"><circle class="outline" cx="0" cy="0" r="25" fill="#4C8EDA" stroke="#2870c2" stroke-width="2px"/><text text-anchor="middle" pointer-events="none" font-family="sans-serif" dy="1.5625" font-size="25" fill="#FFFFFF"/><text text-anchor="middle" pointer-events="none" x="0" y="5" font-size="10px" fill="#FFFFFF" font-family="sans-serif"> 11/3/20…</text></g><g class="node" transform="translate(-88.14297617323518,145.3917964031768)"><circle class="outline" cx="0" cy="0" r="25" fill="#4C8EDA" stroke="#2870c2" stroke-width="2px"/><text text-anchor="middle" pointer-events="none" font-family="sans-serif" dy="1.5625" font-size="25" fill="#FFFFFF"/><text text-anchor="middle" pointer-events="none" x="0" y="5" font-size="10px" fill="#FFFFFF" font-family="sans-serif"> 11/2/20…</text></g></g></svg>