<svg xmlns="http://www.w3.org/2000/svg" width="393.361328125" height="412.01031494140625" viewBox="-95.52699279785156 -115.90593719482422 393.361328125 412.01031494140625"><title>Neo4j Graph Visualization</title><desc>Created using Neo4j (http://www.neo4j.com/)</desc><g class="layer relationships"><g class="relationship" transform="translate(98.66648573203881 -86.9059399199367) rotate(385.213866750211)"><path class="outline" fill="#A5ABB6" stroke="none" d="M 24.018736134675446,-6.953439040707552 L 24.277555179777966,-5.987513214418485 A 107.79901956176931 107.79901956176931 0 0 1 41.53595504506846,-9.134092588915848 L 41.437233929756495,-10.129207728681877 A 108.79901956176931 108.79901956176931 0 0 0 24.018736134675446,-6.953439040707552 Z M 59.49728177874515,-10.414199628713959 L 59.4300083113694,-9.416465054497323 A 107.79901956176931 107.79901956176931 0 0 1 76.77909791740498,-6.816000189897315 L 76.09445986972129,-3.895166277525051 L 83.70848338755421,-5.705317064030746 L 77.69194864764991,-10.710445406393665 L 77.00731059996622,-7.789611494021402 A 108.79901956176931 108.79901956176931 0 0 0 59.49728177874515,-10.414199628713959"/><text text-anchor="middle" pointer-events="none" font-size="8px" fill="#000000" x="50.46922264446331" y="-7.147194156684051" font-family="sans-serif">trek</text></g><g class="relationship" transform="translate(196.4207951897725 -40.87735299240594) rotate(410.4372789513504)"><path class="outline" fill="#A5ABB6" stroke="none" d="M 21.40063509461097,-12.933012701892217 L 21.90063509461097,-12.06698729810778 A 66.38212209502865 66.38212209502865 0 0 1 42.801950342574834,-19.81294676023937 L 42.616813962301286,-20.79565959759279 A 67.38212209502865 67.38212209502865 0 0 0 21.40063509461097,-12.933012701892217 Z M 63.678012247586565,-21.41120114643276 L 63.550585033386454,-20.419353222060693 A 66.38212209502865 66.38212209502865 0 0 1 84.86860938054421,-13.90731014651658 L 83.52290458991736,-11.226064425497349 L 91.3491335280269,-11.214206588557124 L 86.66288243471335,-17.482304441208885 L 85.3171776440865,-14.801058720189655 A 67.38212209502865 67.38212209502865 0 0 0 63.678012247586565,-21.41120114643276"/><text text-anchor="middle" pointer-events="none" font-size="8px" fill="#000000" x="53.13781141986915" y="-18.431958955686483" font-family="sans-serif">road</text></g><g class="relationship" transform="translate(268.8343312461536 46.771625624397785) rotate(498.9346301294761)"><path class="outline" fill="#A5ABB6" stroke="none" d="M 21.40063509461097,12.933012701892217 L 21.90063509461097,12.06698729810778 A 66.72512170690617 66.72512170690617 0 0 0 32.44862187848226,16.984901933904162 L 32.10670307060363,17.92463143158892 A 67.72512170690617 67.72512170690617 0 0 1 21.40063509461097,12.933012701892217 Z M 74.67371854836452,19.165261823098604 L 74.38711112543062,18.207213710987745 A 66.72512170690617 66.72512170690617 0 0 0 85.20361846103154,13.911974647024559 L 83.85747977681231,11.230946739141366 L 91.6837066934622,11.217822368493561 L 86.99847003999051,17.486678524202148 L 85.65233135577128,14.805650616318955 A 67.72512170690617 67.72512170690617 0 0 1 74.67371854836452,19.165261823098604"/><text text-anchor="middle" pointer-events="none" font-size="8px" fill="#000000" x="53.30472815523728" y="24.477924483847602" transform="rotate(180 53.30472815523728 21.477924483847602)" font-family="sans-serif">twowheeler</text></g><g class="relationship" transform="translate(182.86351941998907 121.67728843236637) rotate(474.21849802100905)"><path class="outline" fill="#A5ABB6" stroke="none" d="M 25 0.5 L 48.26802500552969 0.5 L 48.26802500552969 -0.5 L 25 -0.5 Z M 66.2680250055297 0.5 L 89.53605001105937 0.5 L 89.53605001105937 3.5 L 96.53605001105937 0 L 89.53605001105937 -3.5 L 89.53605001105937 -0.5 L 66.2680250055297 -0.5 Z"/><text text-anchor="middle" pointer-events="none" font-size="8px" fill="#000000" x="57.26802500552969" y="3" transform="rotate(180 57.26802500552969 0)" font-family="sans-serif">trek</text></g><g class="relationship" transform="translate(268.8343312461536 46.771625624397785) rotate(498.9346301294761)"><path class="outline" fill="#A5ABB6" stroke="none" d="M 25 0.5 L 44.51280296291107 0.5 L 44.51280296291107 -0.5 L 25 -0.5 Z M 62.51280296291107 0.5 L 82.02560592582213 0.5 L 82.02560592582213 3.5 L 89.02560592582213 0 L 82.02560592582213 -3.5 L 82.02560592582213 -0.5 L 62.51280296291107 -0.5 Z"/><text text-anchor="middle" pointer-events="none" font-size="8px" fill="#000000" x="53.51280296291107" y="3" transform="rotate(180 53.51280296291107 0)" font-family="sans-serif">trek</text></g><g class="relationship" transform="translate(268.8343312461536 46.771625624397785) rotate(498.9346301294761)"><path class="outline" fill="#A5ABB6" stroke="none" d="M 21.40063509461097,-12.933012701892217 L 21.90063509461097,-12.06698729810778 A 66.72512170690617 66.72512170690617 0 0 1 42.967782970450905,-19.86383972842559 L 42.78351334810954,-20.846715461304456 A 67.72512170690617 67.72512170690617 0 0 0 21.40063509461097,-12.933012701892217 Z M 63.84484599892734,-21.460555287259623 L 63.71813304759442,-20.468615859691326 A 66.72512170690617 66.72512170690617 0 0 1 85.20361846103154,-13.911974647024559 L 83.85747977681231,-11.230946739141366 L 91.6837066934622,-11.217822368493561 L 86.99847003999051,-17.486678524202148 L 85.65233135577128,-14.805650616318955 A 67.72512170690617 67.72512170690617 0 0 0 63.84484599892734,-21.460555287259623"/><text text-anchor="middle" pointer-events="none" font-size="8px" fill="#000000" x="53.30472815523728" y="-18.477924483847602" transform="rotate(180 53.30472815523728 -21.477924483847602)" font-family="sans-serif">road</text></g><g class="relationship" transform="translate(196.4207951897725 -40.87735299240594) rotate(410.4372789513504)"><path class="outline" fill="#A5ABB6" stroke="none" d="M 25 0.5 L 44.34642393492692 0.5 L 44.34642393492692 -0.5 L 25 -0.5 Z M 62.34642393492692 0.5 L 81.69284786985384 0.5 L 81.69284786985384 3.5 L 88.69284786985384 0 L 81.69284786985384 -3.5 L 81.69284786985384 -0.5 L 62.34642393492692 -0.5 Z"/><text text-anchor="middle" pointer-events="none" font-size="8px" fill="#000000" x="53.34642393492692" y="3" font-family="sans-serif">trek</text></g><g class="relationship" transform="translate(196.4207951897725 -40.87735299240594) rotate(410.4372789513504)"><path class="outline" fill="#A5ABB6" stroke="none" d="M 21.40063509461097,12.933012701892217 L 21.90063509461097,12.06698729810778 A 66.38212209502865 66.38212209502865 0 0 0 32.28706991330713,16.920464952518188 L 31.943534251759996,17.85960458497194 A 67.38212209502865 67.38212209502865 0 0 1 21.40063509461097,12.933012701892217 Z M 74.50454751056209,19.103506839091324 L 74.21644659054269,18.145906786938028 A 66.38212209502865 66.38212209502865 0 0 0 84.86860938054421,13.90731014651658 L 83.52290458991736,11.226064425497349 L 91.3491335280269,11.214206588557124 L 86.66288243471335,17.482304441208885 L 85.3171776440865,14.801058720189655 A 67.38212209502865 67.38212209502865 0 0 1 74.50454751056209,19.103506839091324"/><text text-anchor="middle" pointer-events="none" font-size="8px" fill="#000000" x="53.13781141986915" y="24.431958955686483" font-family="sans-serif">twowheeler</text></g><g class="relationship" transform="translate(98.66648573203881 -86.9059399199367) rotate(385.213866750211)"><path class="outline" fill="#A5ABB6" stroke="none" d="M 24.018736134675446,6.953439040707552 L 24.277555179777966,5.987513214418485 A 107.79901956176931 107.79901956176931 0 0 0 40.05124203590582,8.976410026447098 L 39.9387479473776,9.970062420419055 A 108.79901956176931 108.79901956176931 0 0 1 24.018736134675446,6.953439040707552 Z M 61.00004310505028,10.302414725036968 L 60.91895736866367,9.305707594855477 A 107.79901956176931 107.79901956176931 0 0 0 76.77909791740498,6.816000189897315 L 76.09445986972129,3.895166277525051 L 83.70848338755421,5.705317064030746 L 77.69194864764991,10.710445406393665 L 77.00731059996622,7.789611494021402 A 108.79901956176931 108.79901956176931 0 0 1 61.00004310505028,10.302414725036968"/><text text-anchor="middle" pointer-events="none" font-size="8px" fill="#000000" x="50.469222644463365" y="13.147194156684051" font-family="sans-serif">road</text></g><g class="relationship" transform="translate(98.66648573203881 -86.9059399199367) rotate(448.1562230999872)"><path class="outline" fill="#A5ABB6" stroke="none" d="M 21.40063509461097,12.933012701892217 L 21.90063509461097,12.06698729810778 A 64.34514826762911 64.34514826762911 0 0 0 41.81795829501041,19.509747487490323 L 41.62749714505017,20.491442221282767 A 65.34514826762911 65.34514826762911 0 0 1 21.40063509461097,12.933012701892217 Z M 62.68777010759539,21.11727766086524 L 62.55593842448576,20.12600554518334 A 64.34514826762911 64.34514826762911 0 0 0 82.88006987234785,13.879076411932987 L 81.53699142341304,11.19651415170362 L 89.36322822103882,11.192320407790014 L 84.67084113759424,17.45582609223881 L 83.32776268865943,14.773263832009443 A 65.34514826762911 65.34514826762911 0 0 1 62.68777010759539,21.11727766086524"/><text text-anchor="middle" pointer-events="none" font-size="8px" fill="#000000" x="52.14709529004157" y="24.158990287354" font-family="sans-serif">road</text></g><g class="relationship" transform="translate(102.26094524135257 24.754133998382276) rotate(410.25264270743287)"><path class="outline" fill="#A5ABB6" stroke="none" d="M 25 0.5 L 50.529502674653344 0.5 L 50.529502674653344 -0.5 L 25 -0.5 Z M 68.52950267465334 0.5 L 94.05900534930669 0.5 L 94.05900534930669 3.5 L 101.05900534930669 0 L 94.05900534930669 -3.5 L 94.05900534930669 -0.5 L 68.52950267465334 -0.5 Z"/><text text-anchor="middle" pointer-events="none" font-size="8px" fill="#000000" x="59.529502674653344" y="3" font-family="sans-serif">trek</text></g><g class="relationship" transform="translate(102.26094524135257 24.754133998382276) rotate(517.8522739471175)"><path class="outline" fill="#A5ABB6" stroke="none" d="M 24.018736134675446,-6.953439040707552 L 24.277555179777966,-5.987513214418485 A 138.63969019197856 138.63969019197856 0 0 1 49.276299033610925,-10.283669952349925 L 49.19779447001955,-11.280583706641323 A 139.63969019197856 139.63969019197856 0 0 0 24.018736134675446,-6.953439040707552 Z M 67.24813899622113,-11.531539876234206 L 67.19737984903381,-10.532828952604746 A 138.63969019197856 138.63969019197856 0 0 1 92.30589812285947,-6.933319669468018 L 91.61030184729572,-4.015076050196002 L 99.23106594708814,-5.79663562969793 L 93.23335982361115,-10.824311161830707 L 92.5377635480474,-7.90606754255869 A 139.63969019197856 139.63969019197856 0 0 0 67.24813899622113,-11.531539876234206"/><text text-anchor="middle" pointer-events="none" font-size="8px" fill="#000000" x="58.225858045769506" y="-8.198100418999502" transform="rotate(180 58.225858045769506 -11.198100418999502)" font-family="sans-serif">trek</text></g><g class="relationship" transform="translate(-12.172688823230228 71.33188916511952) rotate(423.4467883088662)"><path class="outline" fill="#A5ABB6" stroke="none" d="M 24.018736134675446,-6.953439040707552 L 24.277555179777966,-5.987513214418485 A 113.1368705738585 113.1368705738585 0 0 1 42.87054261467152,-9.33648749240507 L 42.776064224746975,-10.332014405068534 A 114.1368705738585 114.1368705738585 0 0 0 24.018736134675446,-6.953439040707552 Z M 60.83422217122732,-10.610490848903737 L 60.77048562275652,-9.612524089743374 A 113.1368705738585 113.1368705738585 0 0 1 79.45789706208348,-6.8384541255865425 L 78.77116165187293,-3.9181126256309367 L 86.38648313034831,-5.722795085087874 L 80.37354427569754,-10.732242792194016 L 79.686808865487,-7.81190129223841 A 114.1368705738585 114.1368705738585 0 0 0 60.83422217122732,-10.610490848903737"/><text text-anchor="middle" pointer-events="none" font-size="8px" fill="#000000" x="51.80733613240485" y="-7.329049015306012" font-family="sans-serif">trek</text></g><g class="relationship" transform="translate(37.32352597222072 170.37547889701224) rotate(393.00144126626947)"><path class="outline" fill="#A5ABB6" stroke="none" d="M 24.018736134675446,6.953439040707552 L 24.277555179777966,5.987513214418485 A 119.85090403885629 119.85090403885629 0 0 0 32.234751786278025,7.8314848591589055 L 32.042325203295945,8.812796231844374 A 120.85090403885629 120.85090403885629 0 0 1 24.018736134675446,6.953439040707552 Z M 74.98684475438,9.456585847664144 L 74.82392008953627,8.469947335550643 A 119.85090403885629 119.85090403885629 0 0 0 82.83281521479589,6.8653264664058495 L 82.14356976309499,3.9455763559837895 L 89.7604397143975,5.743712097507443 L 83.75180915039708,10.758326613635264 L 83.06256369869618,7.838576503213203 A 120.85090403885629 120.85090403885629 0 0 1 74.98684475438,9.456585847664144"/><text text-anchor="middle" pointer-events="none" font-size="8px" fill="#000000" x="53.49325069020913" y="13.55781243316649" font-family="sans-serif">twowheeler</text></g><g class="relationship" transform="translate(37.32352597222072 170.37547889701224) rotate(393.00144126626947)"><path class="outline" fill="#A5ABB6" stroke="none" d="M 24.018736134675446,-6.953439040707552 L 24.277555179777966,-5.987513214418485 A 119.85090403885629 119.85090403885629 0 0 1 44.552514206337804,-9.588724546449214 L 44.4628633388903,-10.584697800089046 A 120.85090403885629 120.85090403885629 0 0 0 24.018736134675446,-6.953439040707552 Z M 62.51877414281577,-10.855377458430738 L 62.45901850852854,-9.857164422966392 A 119.85090403885629 119.85090403885629 0 0 1 82.83281521479589,-6.8653264664058495 L 82.14356976309499,-3.9455763559837895 L 89.7604397143975,-5.743712097507443 L 83.75180915039708,-10.758326613635264 L 83.06256369869618,-7.838576503213203 A 120.85090403885629 120.85090403885629 0 0 0 62.51877414281577,-10.855377458430738"/><text text-anchor="middle" pointer-events="none" font-size="8px" fill="#000000" x="53.49325069020911" y="-7.5578124331664895" font-family="sans-serif">trek</text></g><g class="relationship" transform="translate(-12.172688823230228 71.33188916511952) rotate(423.4467883088662)"><path class="outline" fill="#A5ABB6" stroke="none" d="M 24.018736134675446,6.953439040707552 L 24.277555179777966,5.987513214418485 A 113.1368705738585 113.1368705738585 0 0 0 30.570782391125693,7.482350163217504 L 30.367588246901434,8.4614886313378 A 114.1368705738585 114.1368705738585 0 0 1 24.018736134675446,6.953439040707552 Z M 73.29447520303833,9.123467935090119 L 73.12156926023279,8.138529594409576 A 113.1368705738585 113.1368705738585 0 0 0 79.45789706208348,6.8384541255865425 L 78.77116165187293,3.9181126256309367 L 86.38648313034831,5.722795085087874 L 80.37354427569754,10.732242792194016 L 79.686808865487,7.81190129223841 A 114.1368705738585 114.1368705738585 0 0 1 73.29447520303833,9.123467935090119"/><text text-anchor="middle" pointer-events="none" font-size="8px" fill="#000000" x="51.807336132404885" y="13.329049015306012" font-family="sans-serif">twowheeler</text></g><g class="relationship" transform="translate(102.26094524135257 24.754133998382276) rotate(517.8522739471175)"><path class="outline" fill="#A5ABB6" stroke="none" d="M 24.018736134675446,6.953439040707552 L 24.277555179777966,5.987513214418485 A 138.63969019197856 138.63969019197856 0 0 0 36.92024400307872,8.74983726044195 L 36.752615935147276,9.735687568978477 A 139.63969019197856 139.63969019197856 0 0 1 24.018736134675446,6.953439040707552 Z M 79.73145669511925,10.333227700969303 L 79.59130091806449,9.343098235617333 A 138.63969019197856 138.63969019197856 0 0 0 92.30589812285947,6.933319669468018 L 91.61030184729572,4.015076050196002 L 99.23106594708814,5.79663562969793 L 93.23335982361115,10.824311161830707 L 92.5377635480474,7.90606754255869 A 139.63969019197856 139.63969019197856 0 0 1 79.73145669511925,10.333227700969303"/><text text-anchor="middle" pointer-events="none" font-size="8px" fill="#000000" x="58.225858045769506" y="14.198100418999502" transform="rotate(180 58.225858045769506 11.198100418999502)" font-family="sans-serif">twowheeler</text></g><g class="relationship" transform="translate(98.66648573203881 -86.9059399199367) rotate(448.1562230999872)"><path class="outline" fill="#A5ABB6" stroke="none" d="M 25 0.5 L 43.35895686147512 0.5 L 43.35895686147512 -0.5 L 25 -0.5 Z M 61.35895686147512 0.5 L 79.71791372295024 0.5 L 79.71791372295024 3.5 L 86.71791372295024 0 L 79.71791372295024 -3.5 L 79.71791372295024 -0.5 L 61.35895686147512 -0.5 Z"/><text text-anchor="middle" pointer-events="none" font-size="8px" fill="#000000" x="52.35895686147512" y="3" font-family="sans-serif">trek</text></g><g class="relationship" transform="translate(98.66648573203881 -86.9059399199367) rotate(448.1562230999872)"><path class="outline" fill="#A5ABB6" stroke="none" d="M 21.40063509461097,-12.933012701892217 L 21.90063509461097,-12.06698729810778 A 64.34514826762911 64.34514826762911 0 0 1 23.657479366333128,-13.045024622568896 L 23.18478281218758,-13.926249887582863 A 65.34514826762911 65.34514826762911 0 0 0 21.40063509461097,-12.933012701892217 Z M 81.48778444549455,-15.658805050616643 L 81.06824946938906,-14.751065878924592 A 64.34514826762911 64.34514826762911 0 0 1 82.88006987234785,-13.879076411932987 L 81.53699142341304,-11.19651415170362 L 89.36322822103882,-11.192320407790014 L 84.67084113759424,-17.45582609223881 L 83.32776268865943,-14.773263832009443 A 65.34514826762911 65.34514826762911 0 0 0 81.48778444549455,-15.658805050616643"/><text text-anchor="middle" pointer-events="none" font-size="8px" fill="#000000" x="52.14709529004158" y="-18.158990287354" font-family="sans-serif">PublicTransport</text></g><g class="relationship" transform="translate(102.26094524135257 24.754133998382276) rotate(325.1226547130464)"><path class="outline" fill="#A5ABB6" stroke="none" d="M 25 0.5 L 44.88808549457578 0.5 L 44.88808549457578 -0.5 L 25 -0.5 Z M 62.88808549457578 0.5 L 82.77617098915157 0.5 L 82.77617098915157 3.5 L 89.77617098915157 0 L 82.77617098915157 -3.5 L 82.77617098915157 -0.5 L 62.88808549457578 -0.5 Z"/><text text-anchor="middle" pointer-events="none" font-size="8px" fill="#000000" x="53.88808549457578" y="3" font-family="sans-serif">trek</text></g><g class="relationship" transform="translate(-12.172688823230228 71.33188916511952) rotate(477.3133369148846)"><path class="outline" fill="#A5ABB6" stroke="none" d="M 24.018736134675446,-6.953439040707552 L 24.277555179777966,-5.987513214418485 A 128.53107009907748 128.53107009907748 0 0 1 46.731964388891555,-9.911554751640864 L 46.64784558702054,-10.90801048431129 A 129.53107009907748 129.53107009907748 0 0 0 24.018736134675446,-6.953439040707552 Z M 64.70105822091874,-11.169216824207155 L 64.64580341443394,-10.170744537981676 A 128.53107009907748 128.53107009907748 0 0 1 87.20434096078145,-6.8979813803117604 L 86.5120453875222,-3.978952973590502 L 94.13078983867426,-5.769129777160394 L 88.12740172512711,-10.790019255940106 L 87.43510615186787,-7.870990849218847 A 129.53107009907748 129.53107009907748 0 0 0 64.70105822091874,-11.169216824207155"/><text text-anchor="middle" pointer-events="none" font-size="8px" fill="#000000" x="55.677128816889514" y="-7.853599469058992" transform="rotate(180 55.677128816889514 -10.853599469058992)" font-family="sans-serif">trek</text></g><g class="relationship" transform="translate(-66.52699333456304 176.5813063121655) rotate(356.5802252155311)"><path class="outline" fill="#A5ABB6" stroke="none" d="M 21.40063509461097,12.933012701892217 L 21.90063509461097,12.06698729810778 A 56.399286496557956 56.399286496557956 0 0 0 37.99514690022066,18.30866428632107 L 37.780514194833366,19.28535912186497 A 57.399286496557956 57.399286496557956 0 0 1 21.40063509461097,12.933012701892217 Z M 58.83438405541986,19.95465897767039 L 58.682220043537,18.966303720949547 A 56.399286496557956 56.399286496557956 0 0 0 75.14067818797922,13.759481523702494 L 73.80872517577484,11.07137788483741 L 81.63491218069846,11.099608435036465 L 76.91661553758505,17.343619708855936 L 75.58466252538066,14.655516069990853 A 57.399286496557956 57.399286496557956 0 0 1 58.83438405541986,19.95465897767039"/><text text-anchor="middle" pointer-events="none" font-size="8px" fill="#000000" x="48.2923705346082" y="23.094329609830623" font-family="sans-serif">road</text></g><g class="relationship" transform="translate(-66.52699333456304 176.5813063121655) rotate(356.5802252155311)"><path class="outline" fill="#A5ABB6" stroke="none" d="M 25 0.5 L 39.51788791895375 0.5 L 39.51788791895375 -0.5 L 25 -0.5 Z M 57.51788791895375 0.5 L 72.0357758379075 0.5 L 72.0357758379075 3.5 L 79.0357758379075 0 L 72.0357758379075 -3.5 L 72.0357758379075 -0.5 L 57.51788791895375 -0.5 Z"/><text text-anchor="middle" pointer-events="none" font-size="8px" fill="#000000" x="48.51788791895375" y="3" font-family="sans-serif">trek</text></g><g class="relationship" transform="translate(-66.52699333456304 176.5813063121655) rotate(356.5802252155311)"><path class="outline" fill="#A5ABB6" stroke="none" d="M 21.40063509461097,-12.933012701892217 L 21.90063509461097,-12.06698729810778 A 56.399286496557956 56.399286496557956 0 0 1 27.637629615694845,-14.956826952037758 L 27.23935066355658,-15.874091295770604 A 57.399286496557956 57.399286496557956 0 0 0 21.40063509461097,-12.933012701892217 Z M 69.57093195977329,-17.219806902696263 L 69.23171774988845,-16.279097744766887 A 56.399286496557956 56.399286496557956 0 0 1 75.14067818797922,-13.759481523702494 L 73.80872517577484,-11.07137788483741 L 81.63491218069846,-11.099608435036465 L 76.91661553758505,-17.343619708855936 L 75.58466252538066,-14.655516069990853 A 57.399286496557956 57.399286496557956 0 0 0 69.57093195977329,-17.219806902696263"/><text text-anchor="middle" pointer-events="none" font-size="8px" fill="#000000" x="48.2923705346082" y="-17.094329609830623" font-family="sans-serif">twowheeler</text></g><g class="relationship" transform="translate(-12.172688823230228 71.33188916511952) rotate(477.3133369148846)"><path class="outline" fill="#A5ABB6" stroke="none" d="M 24.018736134675446,6.953439040707552 L 24.277555179777966,5.987513214418485 A 128.53107009907748 128.53107009907748 0 0 0 34.39462680286494,8.26526124730897 L 34.21452080057213,9.248908454359395 A 129.53107009907748 129.53107009907748 0 0 1 24.018736134675446,6.953439040707552 Z M 77.17717845596043,9.87052183619545 L 77.02560606153709,8.88207567719195 A 128.53107009907748 128.53107009907748 0 0 0 87.20434096078145,6.8979813803117604 L 86.5120453875222,3.978952973590502 L 94.13078983867426,5.769129777160394 L 88.12740172512711,10.790019255940106 L 87.43510615186787,7.870990849218847 A 129.53107009907748 129.53107009907748 0 0 1 77.17717845596043,9.87052183619545"/><text text-anchor="middle" pointer-events="none" font-size="8px" fill="#000000" x="55.67712881688953" y="13.853599469058992" transform="rotate(180 55.67712881688953 10.853599469058992)" font-family="sans-serif">twowheeler</text></g><g class="relationship" transform="translate(-66.52699333456304 176.5813063121655) rotate(407.29125036322995)"><path class="outline" fill="#A5ABB6" stroke="none" d="M 25 0.5 L 49.096161202529544 0.5 L 49.096161202529544 -0.5 L 25 -0.5 Z M 67.09616120252954 0.5 L 91.19232240505909 0.5 L 91.19232240505909 3.5 L 98.19232240505909 0 L 91.19232240505909 -3.5 L 91.19232240505909 -0.5 L 67.09616120252954 -0.5 Z"/><text text-anchor="middle" pointer-events="none" font-size="8px" fill="#000000" x="58.096161202529544" y="3" font-family="sans-serif">trek</text></g><g class="relationship" transform="translate(17.030896108501075 267.10438299083734) rotate(343.39381183994806)"><path class="outline" fill="#A5ABB6" stroke="none" d="M 25 0.5 L 48.012059165248985 0.5 L 48.012059165248985 -0.5 L 25 -0.5 Z M 66.01205916524898 0.5 L 89.02411833049797 0.5 L 89.02411833049797 3.5 L 96.02411833049797 0 L 89.02411833049797 -3.5 L 89.02411833049797 -0.5 L 66.01205916524898 -0.5 Z"/><text text-anchor="middle" pointer-events="none" font-size="8px" fill="#000000" x="57.012059165248985" y="3" font-family="sans-serif">trek</text></g></g><g class="layer nodes"><g class="node" transform="translate(98.66648573203881,-86.9059399199367)"><circle class="outline" cx="0" cy="0" r="25" fill="#F16667" stroke="#eb2728" stroke-width="2px"/><text text-anchor="middle" pointer-events="none" font-family="sans-serif" dy="1.5625" font-size="25" fill="#FFFFFF"/><text text-anchor="middle" pointer-events="none" x="0" y="5" font-size="10px" fill="#FFFFFF" font-family="sans-serif"> Darjeeli…</text></g><g class="node" transform="translate(133.00730583291656,232.516674117469)"><circle class="outline" cx="0" cy="0" r="25" fill="#D9C8AE" stroke="#c0a378" stroke-width="2px"/><text text-anchor="middle" pointer-events="none" font-family="sans-serif" dy="1.5625" font-size="25" fill="#2A2C34"/><text text-anchor="middle" pointer-events="none" x="0" y="5" font-size="10px" fill="#2A2C34" font-family="sans-serif"> Sandak…</text></g><g class="node" transform="translate(196.4207951897725,-40.87735299240594)"><circle class="outline" cx="0" cy="0" r="25" fill="#8DCC93" stroke="#5db665" stroke-width="2px"/><text text-anchor="middle" pointer-events="none" font-family="sans-serif" dy="1.5625" font-size="25" fill="#2A2C34"/><text text-anchor="middle" pointer-events="none" x="0" y="5" font-size="10px" fill="#2A2C34" font-family="sans-serif"> Tumbli…</text></g><g class="node" transform="translate(268.8343312461536,46.771625624397785)"><circle class="outline" cx="0" cy="0" r="25" fill="#8DCC93" stroke="#5db665" stroke-width="2px"/><text text-anchor="middle" pointer-events="none" font-family="sans-serif" dy="1.5625" font-size="25" fill="#2A2C34"/><text text-anchor="middle" pointer-events="none" x="0" y="5" font-size="10px" fill="#2A2C34" font-family="sans-serif"> Gairibus</text></g><g class="node" transform="translate(182.86351941998907,121.67728843236637)"><circle class="outline" cx="0" cy="0" r="25" fill="#8DCC93" stroke="#5db665" stroke-width="2px"/><text text-anchor="middle" pointer-events="none" font-family="sans-serif" dy="1.5625" font-size="25" fill="#2A2C34"/><text text-anchor="middle" pointer-events="none" x="0" y="5" font-size="10px" fill="#2A2C34" font-family="sans-serif"> BhikeB…</text></g><g class="node" transform="translate(102.26094524135257,24.754133998382276)"><circle class="outline" cx="0" cy="0" r="25" fill="#F16667" stroke="#eb2728" stroke-width="2px"/><text text-anchor="middle" pointer-events="none" font-family="sans-serif" dy="1.5625" font-size="25" fill="#FFFFFF"/><text text-anchor="middle" pointer-events="none" x="0" y="5" font-size="10px" fill="#FFFFFF" font-family="sans-serif"> Rimbik</text></g><g class="node" transform="translate(-12.172688823230228,71.33188916511952)"><circle class="outline" cx="0" cy="0" r="25" fill="#8DCC93" stroke="#5db665" stroke-width="2px"/><text text-anchor="middle" pointer-events="none" font-family="sans-serif" dy="1.5625" font-size="25" fill="#2A2C34"/><text text-anchor="middle" pointer-events="none" x="0" y="5" font-size="10px" fill="#2A2C34" font-family="sans-serif"> Sirikhola</text></g><g class="node" transform="translate(37.32352597222072,170.37547889701224)"><circle class="outline" cx="0" cy="0" r="25" fill="#8DCC93" stroke="#5db665" stroke-width="2px"/><text text-anchor="middle" pointer-events="none" font-family="sans-serif" dy="1.5625" font-size="25" fill="#2A2C34"/><text text-anchor="middle" pointer-events="none" x="0" y="5" font-size="10px" fill="#2A2C34" font-family="sans-serif"> Gurdum</text></g><g class="node" transform="translate(-66.52699333456304,176.5813063121655)"><circle class="outline" cx="0" cy="0" r="25" fill="#8DCC93" stroke="#5db665" stroke-width="2px"/><text text-anchor="middle" pointer-events="none" font-family="sans-serif" dy="1.5625" font-size="25" fill="#2A2C34"/><text text-anchor="middle" pointer-events="none" x="0" y="5" font-size="10px" fill="#2A2C34" font-family="sans-serif"> Ramm…</text></g><g class="node" transform="translate(17.030896108501075,267.10438299083734)"><circle class="outline" cx="0" cy="0" r="25" fill="#D9C8AE" stroke="#c0a378" stroke-width="2px"/><text text-anchor="middle" pointer-events="none" font-family="sans-serif" dy="1.5625" font-size="25" fill="#2A2C34"/><text text-anchor="middle" pointer-events="none" x="0" y="5" font-size="10px" fill="#2A2C34" font-family="sans-serif"> Sabargr…</text></g></g></svg>